# xmcd
#
# Track frame offsets: 
#        150
#        24427
#        40255
#        55215
#        76745
#        93367
#        109900
#        125367
#        144840
#        159677
#        177347
#        191715
#        208852
#        222027
#        242477
#
# Disc length: 3499 seconds
#
# Revision: 3
# Processed by: cddbd v1.5PL3 Copyright (c) Steve Scherf et al.
# Submitted via: ExactAudioCopy v0.95a4
#
DISCID=c80da90f
DTITLE=Θαλλασινός Παντελής - Ο ’γιος Έρωτας
DYEAR=2001
DGENRE=Other
TTITLE0=Η σακαράκα
TTITLE1=Όσοι μείναν παιδιά
TTITLE2=Δύο μαύρα βότσαλα
TTITLE3=Ότι σε πάει στο Θεό
TTITLE4=Τον ουρανό που σου 'ταξα
TTITLE5=Την πίκρα μου να βαπτιστείς
TTITLE6=Ο ’γιος Έρωτας
TTITLE7=Αν μ' αγαπάς, θα σ' αγαπώ
TTITLE8=Κυκλαδικό
TTITLE9=Η ζωή δύο κομμάτια
TTITLE10=Ο τόπος
TTITLE11=Η πέδρικα
TTITLE12=Τ' ολόγλυκο φιλί
TTITLE13=Θα σ' το πω το τραγουδάκι
TTITLE14=Τρία τσιγάρα χρόνο
EXTD=YEAR: 2001
EXTT0=
EXTT1=
EXTT2=
EXTT3=
EXTT4=
EXTT5=
EXTT6=
EXTT7=
EXTT8=
EXTT9=
EXTT10=
EXTT11=
EXTT12=
EXTT13=
EXTT14=
PLAYORDER=
